<svg width="43" height="26" viewBox="0 0 43 26" fill="none" xmlns="http://www.w3.org/2000/svg">
<path d="M26.665 12.6108C26.665 12.6108 27.1939 14.4183 28.0814 15.3216C31.285 18.5826 37.0708 7.07332 33.014 5.33932C30.2355 4.15175 30.1103 9.00997 31.5332 10.551C33.1878 12.3429 36.2136 11.871 38.2182 11.1404C39.9067 10.525 42.328 7.30792 39.8741 6.2272C36.0413 4.53917 33.7766 15.9128 39.2824 16.0797C40.2355 16.1086 41.8197 14.7874 41.8197 14.7874" stroke="#FDFDFD" stroke-width="1.64004" stroke-linecap="round"/>
<path d="M3.68752 6.32616C4.74483 6.32616 5.79058 6.55896 6.72149 7.55972C9.07105 10.0856 7.83734 15.7717 4.50871 15.7717C-2.31389 15.7717 0.72992 6.67119 10.3356 0.820312" stroke="#FDFDFD" stroke-width="1.64004" stroke-linecap="round"/>
<path d="M15.4464 10.6126C19.0511 11.9637 22.5061 6.98618 19.0511 6.11701C13.4039 4.69634 15.5559 21.3467 15.5559 24.918" stroke="#FDFDFD" stroke-width="1.64004" stroke-linecap="round"/>
<path d="M12.7092 5.98687C15.3019 8.18063 16.465 17.2638 11.2942 15.4055C7.81288 14.1543 10.444 9.23042 14.7121 10.1374" stroke="#FDFDFD" stroke-width="1.64004" stroke-linecap="round"/>
<path d="M22.8137 5.98687C25.4064 8.18063 26.5695 17.2638 21.3987 15.4055C17.9174 14.1543 20.5485 9.23042 24.8166 10.1374" stroke="#FDFDFD" stroke-width="1.64004" stroke-linecap="round"/>
<path d="M13.8652 3.75358L15.5457 1.19922" stroke="#FDFDFD" stroke-width="1.64004" stroke-linecap="round"/>
<path d="M23.9639 3.75358L25.6443 1.19922" stroke="#FDFDFD" stroke-width="1.64004" stroke-linecap="round"/>
</svg>
