<svg width="97" height="68" viewBox="0 0 97 68" fill="none" xmlns="http://www.w3.org/2000/svg">
<path fill-rule="evenodd" clip-rule="evenodd" d="M31.1602 0.0488475C31.0685 0.139721 29.3338 0.328071 27.3046 0.467877C25.2755 0.607294 23.3971 0.738557 23.1299 0.759916C22.4701 0.811955 22.5124 2.08807 23.1823 2.34555C23.4782 2.45895 24.0495 2.32108 24.4518 2.03953C24.8542 1.75759 25.7916 1.577 26.5353 1.63797C27.2786 1.69856 28.1144 1.76768 28.3924 1.79098C28.6705 1.81467 29.1532 2.44535 29.4654 3.19293C29.778 3.9405 30.225 4.55215 30.4588 4.55215C30.7194 4.55215 30.7889 4.93157 30.6379 5.53273C30.4157 6.41739 30.4837 6.4904 31.3299 6.27798C33.298 5.78438 32.7497 6.96031 29.4305 10.3541C28.9575 10.838 29.0786 10.9813 30.3272 11.4162C31.121 11.6927 32.1555 11.9219 32.6262 11.925C33.4856 11.9308 35.486 12.6768 35.8483 13.1269C36.248 13.6232 37.7672 14.2609 38.5497 14.2609C39.0375 14.2609 39.5365 13.8741 39.8025 13.29C40.281 12.2395 41.6736 11.9506 41.6736 12.9017C41.6736 13.2221 41.8048 13.5067 41.9648 13.5343C43.3221 13.7677 44.6814 13.6788 45.1505 13.3261C45.4612 13.0927 45.3738 13.3677 44.9563 13.937C43.0709 16.5098 37.5571 18.1949 35.6771 16.7727C35.2623 16.4593 34.5012 16.2026 33.9854 16.2026C33.4697 16.2026 32.4984 15.7665 31.8266 15.2337C31.1551 14.7005 30.1377 13.8896 29.566 13.4314C28.9944 12.9735 28.4285 12.2085 28.3089 11.7316C27.9505 10.3036 24.1295 9.83099 23.4347 11.1285C22.8953 12.1366 22.9128 12.1972 23.8095 12.4318C24.721 12.6698 24.7823 13.0679 24.06 14.0555C23.3998 14.9584 22.3726 14.6174 21.8841 13.3331C21.4491 12.189 19.9947 11.6158 19.4526 12.3747C19.0196 12.9809 19.0907 12.6791 19.9408 10.3036C20.3151 9.25701 20.3435 8.62827 20.0456 7.97351C19.6949 7.20264 19.7982 6.93972 20.78 6.10555C21.9524 5.10904 21.9955 3.77545 20.8553 3.77545C20.4961 3.77545 20.3144 3.31914 20.3144 2.41623C20.3144 1.66865 20.1396 1.057 19.926 1.057C19.7124 1.057 19.5377 1.23176 19.5377 1.44535C19.5377 1.65895 18.9027 1.8337 18.1264 1.8337C17.3501 1.8337 16.0215 2.04147 15.1738 2.29545C13.7299 2.72807 13.587 2.69739 12.9144 1.81001C12.2297 0.907488 12.1641 0.894673 11.5116 1.54283C10.8631 2.18671 10.8619 2.28225 11.493 3.35021C11.8592 3.9704 12.159 5.01895 12.159 5.67992C12.159 7.07176 13.2639 7.39099 13.6021 6.09739C13.7633 5.48069 13.9221 5.40768 14.3423 5.75642C14.6367 6.00069 14.8813 6.39759 14.886 6.63836C14.8907 6.87953 15.2363 7.51332 15.6542 8.0473C16.6441 9.31293 16.7043 10.8384 15.7512 10.5005C15.3777 10.3677 14.8056 10.0325 14.4802 9.75565C14.1551 9.47836 13.7144 9.3739 13.5015 9.52341C12.9198 9.93079 12.159 11.8434 12.159 12.897C12.159 13.8962 12.9846 14.6966 13.2363 13.9413C13.4258 13.3727 15.9043 13.3347 16.2507 13.8955C16.3963 14.1312 16.9858 14.2007 17.6328 14.0586C18.5668 13.8535 18.761 13.937 18.761 14.5428C18.761 15.5203 16.9699 17.9257 16.6398 17.3918C16.225 16.7203 15.8701 16.8904 13.8685 18.7184C12.0479 20.3813 11.3792 20.73 10.9101 20.2613C10.7928 20.144 10.8945 19.6143 11.1365 19.0846C11.4782 18.3358 11.7788 18.1704 12.4848 18.3428C13.3338 18.5502 13.3753 18.4815 13.1225 17.2865C12.8153 15.8353 11.5345 14.2609 10.6604 14.2609C9.46464 14.2609 6.87746 15.8353 6.20639 16.9712C5.39784 18.3393 4.78037 18.4916 4.78037 17.3223C4.78037 16.6593 4.61144 16.5456 3.90658 16.7347C3.4258 16.8632 2.57338 16.9712 2.01182 16.9739C0.0413371 16.9844 -0.0677892 17.9525 0.0211429 34.6492C0.0933759 48.1693 0.268522 52.7075 0.717842 52.7075C1.08095 52.7075 5.09532 51.57 6.0658 51.1922C6.66619 50.9584 7.06076 50.6112 6.94309 50.4205C6.71396 50.0496 8.34736 48.824 9.07085 48.824C9.78619 48.824 9.25338 49.7599 8.24483 50.2745C7.33765 50.7374 7.35551 50.7545 8.76095 50.7599C10.107 50.7654 10.2173 50.8508 10.2173 51.8893C10.2173 53.0636 9.14581 53.8761 8.65183 53.0761C8.486 52.8081 8.30231 52.9518 8.17144 53.4512C7.86348 54.6287 9.61377 54.7009 10.4627 53.546C10.8837 52.9728 10.9839 53.0271 11.371 54.0415C11.7283 54.9778 11.6988 55.2411 11.206 55.5168C10.3602 55.9902 10.458 56.5568 11.345 56.325C12.3912 56.0512 12.7361 57.4298 11.985 58.8823C11.227 60.3475 11.2297 60.7658 12.0002 61.5362C12.5248 62.0609 12.6701 62.0714 12.9648 61.6054C13.1559 61.3036 13.3147 60.9448 13.3182 60.8077C13.3213 60.671 13.7811 60.4438 14.3396 60.3036C15.2235 60.0819 15.3256 59.9001 15.126 58.9025C14.9256 57.8997 15.0083 57.7561 15.7866 57.7561C16.6491 57.7561 16.6678 57.8302 16.3928 60.1642C16.218 61.6458 15.872 62.7456 15.493 63.0225C15.1544 63.2702 14.8775 63.7491 14.8775 64.0865C14.8775 64.9681 14.1648 65.283 13.4716 64.7075C12.9862 64.3048 12.8134 64.3161 12.5338 64.7681C11.8495 65.8757 12.9831 66.1056 19.3808 66.1557L25.787 66.2058L26.74 64.8034C27.7412 63.3304 27.9571 62.4162 27.3046 62.4162C27.0911 62.4162 26.9163 62.0667 26.9163 61.6396C26.9163 61.2081 27.1753 60.8629 27.4988 60.8629C27.8274 60.8629 28.0813 61.2104 28.0813 61.6601C28.0813 62.0986 28.5105 63.0889 29.0351 63.8609C29.5594 64.633 29.8988 65.41 29.7889 65.5879C29.679 65.7658 29.8511 65.9114 30.1714 65.9114C30.9936 65.9114 31.3357 65.198 30.8146 64.5696C30.5035 64.1949 30.4965 63.963 30.7909 63.7809C31.0316 63.6322 31.3839 64.0267 31.6227 64.7122C32.1536 66.2349 33.9808 66.7704 38.3256 66.6772C40.06 66.6399 42.1621 66.7895 42.9967 67.01C43.8417 67.2329 45.9928 67.311 47.8511 67.1864C52.7365 66.8578 53.634 66.8799 56.5392 67.4003C58.5346 67.7576 61.2627 67.7766 67.8014 67.4796C72.5478 67.2636 80.5998 67.0162 85.6954 66.9296C93.1699 66.8023 95.0705 66.6617 95.5303 66.2015C96.3237 65.4085 96.8876 62.6485 96.4787 61.5615C96.2938 61.0706 96.2309 60.0761 96.3388 59.3514C96.5303 58.0663 96.5078 58.0407 95.415 58.3098C94.799 58.4613 93.7874 58.8357 93.1672 59.1417C91.6957 59.8675 89.1524 59.8531 88.4142 59.1153C87.6468 58.3475 85.1687 58.3308 85.1687 59.0931C85.1687 59.4015 84.8122 59.9036 84.3761 60.2089L83.5835 60.7638L84.3761 60.9712C84.8122 61.0854 85.1687 61.3405 85.1687 61.5386C85.1687 62.2768 82.587 64.8768 82.1326 64.5961C81.4627 64.1817 81.566 63.7118 82.5237 62.8197C83.3439 62.0555 83.3466 62.0279 82.6014 62.0279C82.1765 62.0279 81.5975 62.2465 81.3144 62.5133C80.9027 62.9017 80.7641 62.9017 80.622 62.5133C80.3746 61.8392 78.3761 61.904 77.7944 62.6054C77.5307 62.923 77.4188 63.4539 77.5458 63.7852C77.6957 64.1755 77.3152 64.0353 76.4647 63.3867C75.58 62.7118 75.2126 62.1549 75.3373 61.6784C75.4627 61.1992 75.0472 60.579 74.0495 59.7568C72.4856 58.4679 72.5544 58.0376 74.392 57.6046C75.5909 57.3219 75.6006 57.3362 75.0965 58.6613C74.7738 59.5106 74.8491 59.6392 75.7761 59.819C76.3913 59.9382 77.0709 59.7953 77.4324 59.471C77.7695 59.1685 78.2689 58.9211 78.542 58.9211C78.8293 58.9211 78.9416 58.6695 78.8087 58.323C78.4651 57.4271 79.4072 56.2027 80.4402 56.2027C81.5812 56.2027 81.368 55.2815 80.187 55.1075C78.9909 54.9316 79.1326 53.8423 80.5086 52.6349C81.9396 51.379 81.9917 50.7658 80.6662 50.7658C79.9858 50.7658 79.5932 51.0178 79.4561 51.5425C79.3443 51.9696 79.119 52.3192 78.9552 52.3192C78.7913 52.3192 78.566 51.9696 78.4542 51.5425C78.3062 50.9766 77.9245 50.7658 77.0476 50.7658H75.8441L77.982 48.7576C79.1579 47.6531 80.1202 46.5386 80.1202 46.2807C80.1202 46.0232 80.3823 45.5949 80.7027 45.3289C81.1777 44.9347 81.2853 44.956 81.2853 45.443C81.2853 45.772 81.126 46.099 80.9311 46.1704C80.7365 46.2415 80.5183 46.9114 80.4456 47.659C80.3268 48.8912 80.4142 49.0298 81.3823 49.1409C82.1295 49.2271 82.4503 49.0881 82.4503 48.6784C82.4503 48.3564 82.2755 47.9852 82.062 47.8531C81.4192 47.4559 81.6247 46.8159 82.3501 46.9557C82.7493 47.0326 83.1082 47.5553 83.2251 48.2306C83.3862 49.1603 83.6783 49.4322 84.7816 49.6799C85.5284 49.8477 86.6872 49.8943 87.3567 49.7836C88.246 49.6368 88.6383 49.7502 88.813 50.2058C89.14 51.0574 89.1497 51.038 88.274 51.2671C87.7237 51.4108 87.5715 51.6683 87.7544 52.1452C87.9206 52.5778 87.7552 53.0085 87.2934 53.3463C86.6072 53.8481 86.6134 53.8726 87.4247 53.8726C87.8926 53.8726 88.2755 54.0329 88.2755 54.2291C88.2755 54.4252 88.3816 54.8621 88.5113 55.1999C88.6658 55.603 88.5326 55.8143 88.1229 55.8143C87.7579 55.8143 87.4988 56.1366 87.4988 56.591C87.4988 57.5875 88.4806 57.5949 90.0957 56.61L91.3338 55.8555L91.455 56.7087C91.5633 57.4691 91.8029 57.5599 93.6604 57.5429C96.3365 57.5184 96.9905 56.7867 96.5932 54.2609C96.4421 53.2997 96.3544 49.0601 96.3983 44.8395C96.4822 36.7825 96.1206 34.3098 94.8919 34.5436C94.5637 34.6061 94.241 35.0337 94.1754 35.4943C93.9963 36.7428 93.3571 36.7995 89.9851 35.8644C87.4286 35.1553 86.8957 34.8694 86.792 34.1518C86.7179 33.6353 86.8732 33.2889 87.1804 33.2877C87.9672 33.2838 91.3823 30.2042 91.3823 29.499C91.3823 29.1557 91.0119 28.1094 90.559 27.1739C90.0014 26.0224 89.8033 25.0547 89.9454 24.1782C90.1396 22.9824 90.0686 22.871 89.0142 22.716C88.3497 22.6186 87.6934 22.7646 87.4441 23.0648C87.2084 23.349 86.5563 23.5859 85.9952 23.5918L84.9746 23.6023L86.3338 24.7891C87.5742 25.8718 87.6091 25.9572 86.7365 25.7642C86.1878 25.6426 85.5256 25.7817 85.1831 26.09C84.3594 26.8318 82.4503 27.2791 82.4503 26.73C82.4503 26.4935 82.6251 26.2997 82.8387 26.2997C83.5536 26.2997 83.2367 25.1902 82.4503 24.9405C81.453 24.624 81.453 23.7269 82.4503 23.1929C83.3944 22.6877 83.4569 21.3723 82.5827 20.4065C82.0484 19.8158 82.0173 19.5223 82.4002 18.6819C82.7606 17.8908 82.7555 17.53 82.3777 17.0329C82.1113 16.683 81.8724 16.3525 81.8464 16.2982C81.8208 16.2438 81.2472 16.4749 80.5715 16.812C79.3109 17.4407 79.0491 17.9168 79.7319 18.3386C80.4973 18.8116 80.126 19.6978 79.1629 19.6978C78.0313 19.6978 77.2437 18.4776 77.6169 17.3017C77.8561 16.5483 77.7703 16.5083 76.4456 16.7568C75.6596 16.9044 74.7893 17.1122 74.5117 17.2186C73.8254 17.4819 73.3979 16.2333 73.9474 15.5708C74.4748 14.9358 73.8631 14.8481 73.2414 15.4698C73.0037 15.7075 72.6045 15.7755 72.354 15.6205C72.0507 15.4333 72.4398 14.8193 73.5175 13.7836C74.6794 12.6671 75.0173 12.1094 74.7155 11.8077C74.1128 11.205 74.1862 10.8974 75.1454 10.0038C75.9819 9.22438 75.9835 9.20225 75.2425 8.64186C74.1726 7.83254 73.6965 7.91137 72.9715 9.01817C72.6216 9.55215 72.1016 9.98905 71.8157 9.98905C71.4705 9.98905 71.3583 10.3156 71.4814 10.9599C71.6449 11.8143 71.5334 11.9296 70.554 11.9223C69.9416 11.9176 69.0138 11.5856 68.4919 11.1844C67.5819 10.485 67.5649 10.3894 68.0705 8.85739C68.6985 6.95448 69.3513 6.32924 70.4188 6.60846C70.8522 6.72186 71.8375 6.64031 72.6076 6.42788C73.7179 6.12108 74.1299 6.16225 74.5932 6.62594C75.0476 7.08031 75.335 7.11293 75.8798 6.77234C76.432 6.42749 76.7377 6.47526 77.3136 6.99642C78.1291 7.73468 79.1715 7.86322 79.5377 7.2706C79.8266 6.80264 81.2853 6.74788 81.2853 7.20497C81.2853 7.38244 80.8484 7.76147 80.3144 8.0473C78.4542 9.04264 79.3027 9.98905 82.0553 9.98905C83.333 9.98905 83.6476 9.80458 84.3241 8.65739L85.1097 7.32613L89.9253 7.31254C92.5738 7.30477 95.0231 7.19021 95.368 7.05817C96.0787 6.78516 96.6821 4.63564 96.1788 4.16846C95.7043 3.72768 91.6309 2.6104 90.5493 2.62399C90.0464 2.6306 88.5862 2.4438 87.3047 2.20924C84.9684 1.78089 82.267 1.68924 61.1882 1.32147C50.3105 1.13157 49.8289 1.1537 49.8289 1.8438C49.8289 2.61234 49.159 3.23526 48.761 2.83681C48.6293 2.70516 48.7283 2.3906 48.9812 2.13778C49.8111 1.30788 49.4674 1.057 47.4988 1.057C45.9116 1.057 45.5555 1.18128 45.5485 1.73662C45.5415 2.28574 45.3967 2.22982 44.794 1.44535C44.0631 0.493508 43.9388 0.473702 38.4864 0.432537C35.4274 0.409624 32.5652 0.276809 32.1256 0.137003C31.686 -0.0024149 31.2514 -0.0420263 31.1602 0.0488475ZM14.8048 0.545546C15.0848 0.65778 15.42 0.643799 15.5489 0.514867C15.6778 0.385935 15.4487 0.294285 15.0394 0.310984C14.587 0.329624 14.4949 0.421663 14.8048 0.545546ZM35.4724 3.16846C34.9454 3.4605 33.9843 3.65196 33.3365 3.59409C32.6887 3.53623 32.5516 3.56497 33.032 3.65817C33.5551 3.75914 33.9998 4.20535 34.1419 4.77196C34.439 5.95642 35.2891 5.99099 35.8914 4.84341C36.1435 4.36264 36.5905 3.82788 36.8841 3.65467C37.1777 3.48108 37.3167 3.17545 37.1928 2.97506C36.8984 2.49895 36.627 2.52924 35.4724 3.16846ZM45.0596 3.81429C44.2076 4.90283 44.0382 4.96885 43.2903 4.50128C42.5847 4.06089 42.3703 4.0772 41.8363 4.61157C41.3443 5.10322 41.3012 5.40963 41.6355 6.03487C41.8701 6.47293 42.0619 7.10477 42.0619 7.43914C42.0619 8.31759 41.2491 8.18749 41.0095 7.2706C40.7295 6.20069 39.9493 6.29817 39.1606 7.50205C38.5276 8.46827 38.5338 8.53351 39.3101 9.0772C39.7555 9.38943 40.1202 10.0718 40.1202 10.5937C40.1202 11.8652 41.0219 11.8085 42.0173 10.4745L42.8142 9.40652L42.8262 10.4516C42.8491 12.3879 43.9784 12.1856 44.6856 10.118C45.0441 9.06905 44.9963 8.78827 44.3606 8.21312C43.4713 7.40807 43.3847 6.4939 44.1979 6.4939C44.5182 6.4939 44.7804 6.22749 44.7804 5.90167C44.7804 5.55332 45.2635 5.21273 45.9536 5.07487C47.3412 4.7972 47.6351 4.42865 47.3035 3.38361C46.9513 2.27409 46.1439 2.42904 45.0596 3.81429ZM13.1299 4.55215C13.2619 4.76574 13.5342 4.9405 13.7353 4.9405C13.9365 4.9405 14.1008 4.76574 14.1008 4.55215C14.1008 4.33856 13.8281 4.1638 13.4953 4.1638C13.1625 4.1638 12.9978 4.33856 13.1299 4.55215ZM94.7155 5.66516C94.5482 5.93584 94.5163 6.26205 94.6445 6.39021C94.9921 6.73778 95.3711 6.22671 95.1831 5.66361C95.0519 5.26904 94.9602 5.26904 94.7155 5.66516ZM23.4212 6.3471C23.4212 6.86322 23.5264 6.89002 24.0037 6.4939C24.3241 6.22788 24.5862 5.94438 24.5862 5.864C24.5862 5.78322 24.3241 5.7172 24.0037 5.7172C23.6833 5.7172 23.4212 6.00069 23.4212 6.3471ZM83.227 6.02128C83.227 6.45584 85.1408 7.03992 85.4736 6.7071C85.7827 6.39759 85.4981 6.20302 84.2942 5.90089C83.6631 5.74244 83.227 5.79176 83.227 6.02128ZM10.0693 6.69739C9.30425 7.46205 9.29221 7.69584 9.96794 8.61972C10.4534 9.2838 10.5167 9.22516 10.7695 7.87759C11.0953 6.14128 10.9206 5.84613 10.0693 6.69739ZM48.9551 6.75137C48.8538 6.93002 48.8557 8.17739 48.9594 9.52264C49.1136 11.5195 49.2643 11.9452 49.78 11.838C50.147 11.7619 50.373 11.3879 50.3198 10.9452C49.8724 7.22555 49.4402 5.89701 48.9551 6.75137ZM91.3823 8.02439C91.3823 8.22555 91.5571 8.49778 91.7707 8.62982C91.9843 8.76186 92.159 8.5972 92.159 8.26438C92.159 7.93157 91.9843 7.65895 91.7707 7.65895C91.5571 7.65895 91.3823 7.82322 91.3823 8.02439ZM87.4988 9.39293C87.4988 10.3164 87.7299 10.8621 88.2355 11.1327C88.8588 11.4663 89.0107 11.3642 89.2247 10.4667C89.3637 9.88341 89.5684 9.1005 89.6794 8.72691C89.841 8.18361 89.6425 8.0473 88.6899 8.0473C87.5897 8.0473 87.4988 8.15021 87.4988 9.39293ZM8.84872 11.5716C8.55784 12.4885 8.80484 12.9063 9.41454 12.5292C9.92406 12.2147 9.96678 10.7657 9.46658 10.7657C9.26736 10.7657 8.9893 11.1285 8.84872 11.5716ZM81.9214 12.125C82.0445 12.4454 82.4099 12.7075 82.7334 12.7075C83.2126 12.7075 83.232 12.5991 82.8387 12.125C82.5726 11.8046 82.2072 11.5424 82.0266 11.5424C81.846 11.5424 81.7986 11.8046 81.9214 12.125ZM0.896871 15.8372C0.896871 16.0632 1.07163 16.1405 1.28522 16.0085C1.49881 15.8764 1.67357 15.6916 1.67357 15.5972C1.67357 15.5028 1.49881 15.4259 1.28522 15.4259C1.07163 15.4259 0.896871 15.6112 0.896871 15.8372ZM16.2367 15.8143C16.1046 16.0279 16.1819 16.2026 16.4079 16.2026C16.634 16.2026 16.8192 16.0279 16.8192 15.8143C16.8192 15.6007 16.7423 15.4259 16.6479 15.4259C16.5536 15.4259 16.3687 15.6007 16.2367 15.8143ZM30.253 17.1735C29.9031 17.7075 29.7652 18.1444 29.9466 18.1444C30.1276 18.1444 30.6864 17.7075 31.1881 17.1735C31.8911 16.4252 31.9613 16.2026 31.4946 16.2026C31.1617 16.2026 30.6029 16.6395 30.253 17.1735ZM87.4988 18.297C87.4988 18.5945 87.7754 18.944 88.1132 19.0737C89.2717 19.5184 89.5602 19.3087 88.8581 18.5327C88.0375 17.6259 87.4988 17.5323 87.4988 18.297ZM70.3144 19.3541C69.2033 20.1828 68.9128 21.3875 69.7058 21.8776C69.9586 22.0341 71.2977 22.3502 72.6818 22.5801L75.1979 22.9988L76.1047 25.523C77.4084 29.1522 77.2957 30.7102 75.5451 33.2489C74.3175 35.0291 72.7994 36.2823 70.5078 37.4069C69.7047 37.8011 68.0732 37.205 67.1097 36.165C66.6115 35.6275 65.3594 34.7634 64.3272 34.2446C63.295 33.7258 61.5291 32.5999 60.4037 31.7424C59.2779 30.885 58.0052 30.1832 57.5757 30.1832C57.1458 30.1832 56.232 29.9541 55.5447 29.6741C54.8573 29.3941 53.2464 28.9405 51.9649 28.6663C50.6833 28.3918 49.2852 28.0345 48.8581 27.8725C47.973 27.5362 43.38 27.7005 39.926 28.1922C38.6445 28.3743 35.2367 28.4426 32.3532 28.3432C28.9738 28.2271 26.4895 28.3273 25.3629 28.6244C24.4017 28.8784 21.7544 29.2896 19.4798 29.5386C16.5784 29.8566 15.121 30.1941 14.5951 30.6698C14.1827 31.043 13.3753 31.3483 12.8006 31.3483C11.8596 31.3483 11.7804 31.4543 12.0041 32.4162C12.3015 33.697 13.1644 34.4551 14.3252 34.4551C15.2239 34.4551 15.3264 35.3925 15.8079 48.0473C15.9097 50.7207 16.8402 53.0694 18.3314 54.4182C18.7812 54.8252 19.1493 55.3929 19.1493 55.6803C19.1493 56.4834 19.6806 56.3071 20.8087 55.1296C21.9633 53.9246 22.8577 50.57 22.5008 48.7844C22.3769 48.1654 22.4316 47.659 22.6223 47.659C23.5679 47.659 24.1979 48.224 24.1979 49.0718C24.1979 49.5898 24.4534 50.1114 24.7656 50.2314C25.7509 50.6093 25.8596 51.8648 25.0013 52.9561C23.6468 54.6776 24.0969 57.3887 25.7318 57.3557C26.5167 57.3397 27.82 55.5405 27.5524 54.8427C27.4379 54.5448 27.5431 53.2318 27.7862 51.9254C28.2942 49.1926 28.5423 48.9883 32.3186 48.1863C36.192 47.3634 40.6033 47.476 41.8678 48.4298C42.7299 49.0799 45.413 49.2392 47.9299 48.7894L50.5944 48.3133L54.4398 50.1219C57.0142 51.3327 58.799 51.9308 59.8394 51.9308C60.7909 51.9308 61.7489 52.2186 62.3101 52.6733C63.1295 53.3366 63.227 53.7328 63.227 56.3937C63.227 58.8931 63.3482 59.4601 63.9808 59.923C64.3955 60.2263 64.8845 60.4745 65.0674 60.4745C65.2503 60.4745 65.3478 58.7763 65.2845 56.7001C65.1839 53.4182 65.2538 52.9087 65.8223 52.7933C66.7427 52.6065 67.432 54.0955 67.5051 56.4287C67.5388 57.5141 67.7 58.6182 67.8627 58.8819C68.0379 59.165 67.8654 59.5937 67.4406 59.9296C66.7618 60.4667 66.7757 60.4928 67.693 60.4011C68.9835 60.2722 69.632 60.723 69.6472 61.7596C69.6627 62.8225 70.4538 63.8947 71.0693 63.6873C71.3241 63.6015 71.4297 63.2625 71.3039 62.9343C71.1781 62.6062 71.2973 62.2003 71.5691 62.0326C71.9575 61.7926 71.9703 61.3223 71.6297 59.8388C71.2041 57.9848 71.0274 56.0481 71.1342 54.3999C71.168 53.8795 71.5245 53.4838 72.0876 53.3425C73.415 53.0096 74.8301 49.8061 74.4783 47.9316C74.1396 46.1265 74.9295 45.7087 76.9027 46.6496C78.4864 47.405 78.9761 47.2015 78.0468 46.1743C77.6919 45.7825 77.4018 45.1153 77.4018 44.6912C77.4018 44.2675 76.8651 43.4073 76.2087 42.7801C74.8056 41.4384 74.8573 40.3976 76.4476 37.9949C77.5664 36.304 79.0425 35.5102 80.728 35.6935C81.634 35.7922 81.94 35.6007 82.3971 34.6492C82.7051 34.0085 83.2748 33.0741 83.6627 32.5731C84.3571 31.6764 84.3493 31.6376 83.1563 30.1533C82.4895 29.3234 81.6402 28.5483 81.2686 28.4302C80.8973 28.3125 80.3221 27.6566 79.9913 26.9727C79.495 25.9483 79.3435 25.8481 79.1307 26.403C78.8177 27.2178 77.7901 27.3024 77.7901 26.5133C77.7901 26.2034 78.0957 25.7782 78.4697 25.5685C79.1171 25.205 79.1171 25.1743 78.4697 24.925C78.0957 24.7809 77.7901 24.3607 77.7901 23.9906C77.7901 23.0446 72.7016 18.504 71.6872 18.5452C71.5194 18.5518 70.9016 18.916 70.3144 19.3541ZM76.4188 19.7172C76.0499 20.3145 76.5552 20.6997 77.0538 20.2011C77.3326 19.9223 77.3392 19.7052 77.074 19.5413C76.8565 19.4069 76.5618 19.4861 76.4188 19.7172ZM5.17454 23.5704C4.89066 24.1009 4.88445 24.358 5.15513 24.358C5.3761 24.358 5.55707 25.057 5.55707 25.9114C5.55707 27.0333 5.71901 27.4648 6.13959 27.4648C6.52639 27.4648 6.72212 27.852 6.72212 28.6178C6.72212 30.1184 7.56134 29.843 9.4627 27.7184L10.8441 26.1743L11.9008 27.0935C12.4821 27.5988 12.8709 28.2388 12.7648 28.5153C12.6584 28.7918 12.8099 29.0182 13.1004 29.0182C13.8922 29.0182 14.2363 27.7658 13.5501 27.3817C13.2301 27.2026 13.0553 26.8287 13.1617 26.5506C13.2685 26.2725 13.1695 25.5557 12.9423 24.9576C12.5652 23.9657 12.3955 23.8877 11.0204 24.0722C10.1866 24.184 9.32755 24.0896 9.09882 23.8609C8.806 23.5681 8.39241 23.5801 7.68522 23.9024C6.36678 24.5032 5.92406 24.4776 6.17843 23.8147C6.51823 22.9289 5.63318 22.7137 5.17454 23.5704ZM69.6126 25.9529C68.9637 27.1654 69.7645 27.7708 70.5447 26.6574C71.1482 25.7957 71.0864 25.1347 70.4021 25.1347C70.2087 25.1347 69.8534 25.5028 69.6126 25.9529ZM83.6153 28.5362C83.6153 28.97 85.0453 29.7891 85.321 29.5129C85.8903 28.944 85.4845 28.2415 84.5862 28.2415C84.0522 28.2415 83.6153 28.3743 83.6153 28.5362ZM8.27551 31.3483C8.27551 31.5619 8.46076 31.7366 8.68678 31.7366C8.9128 31.7366 8.99008 31.5619 8.85804 31.3483C8.726 31.1347 8.54115 30.9599 8.44678 30.9599C8.35241 30.9599 8.27551 31.1347 8.27551 31.3483ZM10.1676 32.4162C9.68484 33.0322 9.69843 33.0458 10.3144 32.563C10.6879 32.2698 10.994 31.9638 10.994 31.8834C10.994 31.5638 10.6751 31.7692 10.1676 32.4162ZM16.5279 33.9355C15.8503 34.2089 15.9427 34.8873 16.7978 35.9122C17.6336 36.9141 18.5808 36.7393 18.8984 35.5254C19.2165 34.3087 17.8592 33.3984 16.5279 33.9355ZM24.1979 36.3968C24.1979 36.6104 24.46 36.7852 24.7804 36.7852C25.1008 36.7852 25.3629 36.6104 25.3629 36.3968C25.3629 36.1832 25.1008 36.0085 24.7804 36.0085C24.46 36.0085 24.1979 36.1832 24.1979 36.3968ZM71.5804 37.7514C71.192 38.2193 71.2196 38.3751 71.7268 38.5696C72.5893 38.9005 73.5183 38.485 73.5183 37.7681C73.5183 37.0069 72.2076 36.9957 71.5804 37.7514ZM89.187 37.7704C89.0612 38.0986 88.4946 38.6069 87.9276 38.9001C87.2441 39.2535 86.8678 39.791 86.8095 40.497C86.6561 42.3475 85.4344 43.2792 85.0561 41.8337C84.8503 41.0469 83.6153 40.7223 83.6153 41.4551C83.6153 41.6737 83.1785 42.019 82.6445 42.2221C81.4825 42.6636 81.4293 43.1483 82.406 44.3898C83.0538 45.2131 83.1959 45.252 83.6348 44.7226C84.053 44.2193 83.9983 44.0896 83.2907 43.9048C82.8286 43.7836 82.4503 43.4228 82.4503 43.1025C82.4503 42.6725 82.6794 42.5945 83.3241 42.8054C84.7866 43.283 86.8856 43.0512 87.3047 42.3654C87.5183 42.0159 88.0996 41.311 88.5963 40.7992C89.3443 40.0283 89.7365 39.9122 90.8721 40.1254C92.1773 40.37 92.2309 40.3378 91.9734 39.4578C91.6961 38.5083 90.4107 37.1735 89.7738 37.1735C89.5773 37.1735 89.3132 37.4423 89.187 37.7704ZM85.9454 38.3386C85.9454 38.5522 86.2076 38.7269 86.528 38.7269C86.8484 38.7269 87.1105 38.5522 87.1105 38.3386C87.1105 38.125 86.8484 37.9502 86.528 37.9502C86.2076 37.9502 85.9454 38.125 85.9454 38.3386ZM30.8728 44.5766C30.966 44.8566 31.272 45.1626 31.5524 45.2562C31.8437 45.3533 31.9893 45.2077 31.8922 44.9164C31.7986 44.636 31.4926 44.33 31.2126 44.2368C30.9213 44.1397 30.7757 44.2854 30.8728 44.5766ZM62.6449 45.8143C62.6449 46.0815 62.9944 47.219 63.4216 48.3428C63.8484 49.4663 64.1979 50.7463 64.1979 51.1867C64.1979 52.419 65.4456 51.9444 65.8142 50.5716C66.1917 49.1661 65.206 46.2566 64.1637 45.699C63.2157 45.1918 62.6445 45.2349 62.6449 45.8143ZM22.4503 46.1056C22.3182 46.3192 22.493 46.4939 22.8386 46.4939C23.1843 46.4939 23.359 46.3192 23.227 46.1056C23.0949 45.892 22.9202 45.7172 22.8386 45.7172C22.7571 45.7172 22.5823 45.892 22.4503 46.1056ZM85.7513 48.824C85.6192 49.0376 85.7839 49.2124 86.1167 49.2124C86.4495 49.2124 86.7221 49.0376 86.7221 48.824C86.7221 48.6104 86.5579 48.4357 86.3567 48.4357C86.1555 48.4357 85.8833 48.6104 85.7513 48.824ZM89.2464 48.824C89.1144 49.0376 89.3664 49.2124 89.806 49.2124C90.2456 49.2124 90.6056 49.0376 90.6056 48.824C90.6056 48.6104 90.354 48.4357 90.046 48.4357C89.7381 48.4357 89.3785 48.6104 89.2464 48.824ZM78.761 50.3774C78.893 50.591 79.0779 50.7658 79.1722 50.7658C79.2666 50.7658 79.3435 50.591 79.3435 50.3774C79.3435 50.1638 79.1583 49.9891 78.9322 49.9891C78.7062 49.9891 78.6289 50.1638 78.761 50.3774ZM4.00367 54.6722C4.00367 54.8982 4.17843 54.9755 4.39202 54.8434C4.60561 54.7114 4.78037 54.5265 4.78037 54.4322C4.78037 54.3378 4.60561 54.2609 4.39202 54.2609C4.17843 54.2609 4.00367 54.4462 4.00367 54.6722ZM83.227 55.6201C82.7253 56.1541 82.0833 56.591 81.8002 56.591C80.9924 56.591 81.1983 57.4178 82.062 57.6434C82.4891 57.7553 82.8387 58.0011 82.8387 58.1898C82.8387 58.9227 84.335 58.4834 84.9299 57.5755C85.7272 56.3588 85.733 55.1883 84.9427 54.885C84.1326 54.5739 84.2616 54.5188 83.227 55.6201ZM4.15979 57.2116C3.44716 57.9242 3.25377 57.9595 2.61377 57.4916C1.32639 56.5502 0.768716 57.01 0.646386 59.1153C0.532211 61.0819 1.6926 64.358 2.50347 64.358C2.70852 64.358 3.82852 63.7487 4.99318 63.0034C7.36639 61.4854 7.6161 60.6978 6.17881 59.2601C5.66619 58.7479 5.18542 57.8939 5.11085 57.3627L4.97454 56.3968L4.15979 57.2116ZM17.9116 56.8562C18.1916 56.9685 18.5268 56.9545 18.6557 56.8256C18.7846 56.6966 18.5555 56.605 18.1462 56.6217C17.6938 56.6403 17.6017 56.7324 17.9116 56.8562ZM7.67707 57.3937C7.5361 57.6213 7.51435 57.9009 7.62814 58.0151C7.90658 58.2931 8.66386 57.803 8.66386 57.3448C8.66386 56.8485 7.99357 56.8815 7.67707 57.3937ZM37.0542 57.5129C36.7062 57.932 36.8413 58.2023 37.6864 58.7751C38.2775 59.1759 39.1979 59.591 39.7318 59.6978C40.4165 59.8349 40.8122 60.2644 41.0744 61.1541C41.4247 62.344 42.0619 62.8966 42.0619 62.0104C42.0619 61.7596 42.5625 61.6982 43.3707 61.85C44.2779 62.0201 45.1412 61.8683 46.1862 61.3545C47.0149 60.9471 48.4794 60.3685 49.4406 60.0691C51.2837 59.4943 53.2845 57.9751 52.8153 57.506C52.6627 57.3537 51.6227 57.5122 50.5039 57.8586C49.385 58.2046 47.2464 58.6023 45.7513 58.7417C43.2845 58.972 42.8713 58.9025 41.2852 57.9922C39.3513 56.8815 37.7303 56.6982 37.0542 57.5129ZM9.27862 58.0058C8.95357 58.8531 9.38542 59.2469 9.84406 58.5215C10.3035 57.7953 10.3132 57.3677 9.87047 57.3677C9.67979 57.3677 9.41338 57.6547 9.27862 58.0058ZM24.9745 60.4745C24.9745 60.6881 25.1493 60.8629 25.3629 60.8629C25.5765 60.8629 25.7512 60.6881 25.7512 60.4745C25.7512 60.2609 25.5765 60.0862 25.3629 60.0862C25.1493 60.0862 24.9745 60.2609 24.9745 60.4745ZM78.761 60.8629C78.6289 61.0764 78.7062 61.2512 78.9322 61.2512C79.1583 61.2512 79.3435 61.0764 79.3435 60.8629C79.3435 60.6493 79.2666 60.4745 79.1722 60.4745C79.0779 60.4745 78.893 60.6493 78.761 60.8629ZM72.4379 61.6994C72.5334 61.9871 72.9233 62.2823 73.3039 62.3564C73.7466 62.4419 73.9334 62.3021 73.8219 61.9681C73.7264 61.6803 73.3365 61.3852 72.9559 61.311C72.5132 61.2256 72.3264 61.3654 72.4379 61.6994ZM67.4573 62.2539C67.587 62.5918 67.693 62.9413 67.693 63.0306C67.693 63.1199 67.9551 63.1929 68.2755 63.1929C68.9777 63.1929 69.0262 62.7397 68.392 62.1056C67.7284 61.4419 67.1792 61.5289 67.4573 62.2539ZM23.2806 62.6104C23.1579 62.9308 23.2052 63.1929 23.3858 63.1929C23.5664 63.1929 23.9318 62.9308 24.1979 62.6104C24.5912 62.1362 24.5718 62.0279 24.0926 62.0279C23.7691 62.0279 23.4037 62.29 23.2806 62.6104Z" fill="#D8D8FD"/>
<path fill-rule="evenodd" clip-rule="evenodd" d="M30.3241 1.10632C30.2232 1.39991 30.3086 2.01545 30.514 2.47447C30.8379 3.19642 31.0511 3.26088 32.1059 2.95448C32.7758 2.75991 33.7766 2.69816 34.33 2.81739C34.9801 2.95758 35.5117 2.82205 35.8337 2.43409C36.5241 1.60224 36.8185 1.6702 38.1455 2.96768C39.1735 3.97234 39.2364 4.15797 38.6997 4.6038C38.1968 5.02088 38.0135 4.99564 37.6173 4.45389C37.1855 3.8636 37.0593 3.91137 36.2884 4.95409C35.2624 6.34166 34.0139 6.48341 33.8364 5.23253C33.7467 4.60185 33.4511 4.35875 32.7735 4.35875C31.5964 4.35875 31.2725 5.15952 32.337 5.43797C33.3676 5.70749 33.3575 6.94477 32.3168 7.88651C30.3168 9.69622 30.8189 11.149 33.4484 11.1619C34.3843 11.1665 35.4667 11.5685 36.5859 12.3269C38.5548 13.6609 39.1711 13.7553 39.6818 12.8011C40.2492 11.7413 39.7358 9.88496 38.6127 8.93584C38.0535 8.46283 37.8096 8.06982 38.0709 8.06205C38.3327 8.05428 38.8236 7.51253 39.1618 6.85817C39.5001 6.2038 39.9851 5.73855 40.2399 5.82399C40.4942 5.90943 40.9207 5.46477 41.1871 4.83525C41.6119 3.83214 41.8344 3.7102 42.9902 3.84496C44.7315 4.04846 45.3766 3.14011 44.4049 1.85234C43.6744 0.883794 42.4923 0.749426 37.0131 1.0135C35.6247 1.08069 33.5933 1.00884 32.4985 0.853892C30.9669 0.637581 30.4659 0.695833 30.3241 1.10632ZM51.7137 1.71719C51.1486 1.80574 50.3785 2.21778 50.003 2.63292C49.6275 3.04807 49.0849 3.38787 48.7975 3.38787C48.5102 3.38787 48.2752 3.62244 48.2752 3.90943C48.2752 4.19603 47.6896 4.74593 46.9735 5.13156C45.7315 5.8003 44.4317 7.27137 45.0826 7.27137C45.5805 7.27137 45.6205 9.67487 45.142 10.8306C44.8997 11.4151 44.2387 12.0714 43.6729 12.2896C42.7222 12.6566 42.7622 12.6803 44.1975 12.6019C46.4372 12.4791 46.3028 13.6178 43.8597 15.4644C41.4698 17.2706 37.9346 18.1479 36.0849 17.3937C33.761 16.4465 33.1634 16.4628 31.6438 17.5156C30.2461 18.4846 29.0212 18.8675 29.321 18.2422C29.3975 18.0819 29.801 17.2811 30.2173 16.4621C30.9474 15.0263 30.949 14.9588 30.2655 14.5762C29.8756 14.358 29.321 13.892 29.0337 13.5409C28.7463 13.1898 28.196 12.5199 27.8107 12.052C27.4255 11.5844 26.6748 11.1475 26.1428 11.0811C25.281 10.9739 25.1517 11.1304 24.9626 12.5141C24.7397 14.1421 23.5028 16.5918 22.9036 16.5918C22.7109 16.5918 22.6457 16.2399 22.7579 15.81C22.8931 15.2931 22.7113 14.8939 22.2208 14.6314C21.8127 14.4131 21.4791 13.9727 21.4791 13.6531C21.4791 12.8516 20.4267 12.5199 19.7265 13.1009C19.4088 13.3642 19.149 14.0228 19.149 14.5638C19.149 16.005 17.4154 18.1269 16.4457 17.8733C15.9156 17.7347 15.067 18.1758 13.7637 19.2671C11.7474 20.9549 11.5043 21.0523 10.6511 20.5118C10.1948 20.2228 10.1944 19.9906 10.6488 18.9642C10.954 18.2745 11.4756 17.7568 11.8651 17.7568C12.2604 17.7568 12.5416 17.4714 12.5342 17.0772C12.5171 16.1848 11.2201 14.65 10.4826 14.65C9.8286 14.65 6.87132 16.9991 6.8985 17.497C6.90821 17.6745 6.48646 18.0496 5.96141 18.3304C4.94394 18.8753 3.31365 18.5215 2.76025 17.6353C2.20491 16.7467 1.10316 17.9657 0.754033 19.8562C0.447626 21.5129 0.759859 22.9032 1.17617 21.7374C1.40568 21.0951 2.44996 21.111 2.44996 21.7572C2.44996 22.4621 3.36141 24.3521 3.70316 24.3556C3.8585 24.3572 4.2717 23.9219 4.62161 23.3879C5.31947 22.3226 6.62238 22.0943 6.96103 22.9774C7.11093 23.3677 7.43132 23.4469 8.01695 23.2388C8.47947 23.0741 9.68763 22.963 10.7024 22.9922C12.7657 23.0512 13.6787 23.8372 13.6997 25.5735C13.7067 26.1347 13.9676 26.8057 14.2803 27.0652C14.7777 27.4784 14.7735 27.6512 14.2457 28.457C13.4993 29.596 12.3043 30.0116 11.5575 29.3918C10.8278 28.7863 10.8368 28.2422 11.5762 28.2422C11.8966 28.2422 12.1587 28.0675 12.1587 27.8539C12.1587 26.8923 10.2469 27.6007 8.49074 29.2131C7.44374 30.1743 6.45928 30.9607 6.30316 30.9607C6.14705 30.9607 6.11015 30.2799 6.222 29.4481C6.38976 28.1953 6.29695 27.8947 5.68064 27.6989C5.09423 27.5129 4.96918 27.1828 5.09035 26.1424C5.24374 24.8302 5.23637 24.8232 3.85306 25.0096C2.64297 25.1727 2.40141 25.0652 2.00064 24.1855C0.901218 21.7727 0.702383 23.4178 0.754033 34.4889C0.823936 49.3638 0.901218 51.0636 1.53345 51.5883C1.87365 51.8706 2.23442 51.8959 2.54704 51.659C2.81423 51.4562 3.73772 51.0896 4.59947 50.8438C5.46161 50.598 6.7218 49.8543 7.39986 49.1914C8.31831 48.2935 8.84375 48.0531 9.46044 48.2485C10.0348 48.431 10.229 48.7374 10.0946 49.2504C9.97229 49.7184 10.1016 49.9898 10.4476 49.9898C10.7719 49.9898 10.9936 50.3859 10.9936 50.9646C10.9936 51.5005 11.3214 52.2197 11.7222 52.563C12.1331 52.9149 12.37 53.4955 12.2659 53.8943C12.1641 54.2834 12.3401 54.9716 12.6566 55.4236C13.2201 56.2283 13.1727 56.843 12.3338 59.6015C12.0317 60.5953 12.1043 60.6244 13.5366 60.0799C14.3789 59.7595 14.5404 59.4959 14.387 58.6927C14.2336 57.8908 14.3929 57.6298 15.217 57.33C16.8779 56.7261 18.7606 55.6617 18.7606 55.3261C18.7606 55.1545 18.4904 54.9102 18.1603 54.7836C17.0049 54.3401 15.5482 50.7421 15.4336 48.0481C15.3742 46.6597 15.2049 43.1335 15.0573 40.212L14.789 34.9005L13.3766 34.5685C12.2399 34.3017 11.9408 34.0349 11.8437 33.2026C11.7016 31.9856 10.6053 32.1292 10.6053 33.3646C10.6053 33.8061 10.3991 34.0636 10.1199 33.9704C9.85307 33.8815 9.63443 33.3879 9.63443 32.8737C9.63443 31.8555 11.5777 30.6259 13.2422 30.591C13.7315 30.5809 14.6053 30.2259 15.1839 29.8026C15.9851 29.2166 17.1171 28.9782 19.9257 28.8034C21.9548 28.6772 24.1393 28.3413 24.7801 28.0574C26.6267 27.2388 33.9288 26.9137 35.5218 27.5797C36.6263 28.0411 37.1117 28.0473 38.5622 27.6189C39.8457 27.2403 40.3587 27.2232 40.5626 27.5537C40.7634 27.8784 41.0104 27.8547 41.4787 27.4659C42.6212 26.5176 50.2655 26.9871 53.4174 28.1995C54.003 28.4244 54.7175 28.5184 55.0057 28.4077C55.2939 28.2974 55.7521 28.4753 56.0243 28.8034C56.3218 29.1619 56.857 29.3149 57.3657 29.1875C57.8923 29.0551 58.5952 29.2764 59.2271 29.7735C59.7855 30.2131 60.4197 30.5723 60.6368 30.5723C60.8535 30.5723 61.5249 31.0555 62.1288 31.6461C63.4729 32.9611 65.1642 34.0667 65.8344 34.0694C66.109 34.0702 66.8919 34.5945 67.5746 35.2345C68.257 35.8741 69.0974 36.3976 69.4422 36.3976C69.7867 36.3976 69.9607 36.5723 69.8286 36.7859C69.4418 37.4116 69.8484 37.2527 72.2348 35.8446C76.5075 33.3234 77.6589 29.8263 75.6857 25.3642C74.8348 23.4407 74.6065 23.2162 73.2585 22.9793C69.095 22.2473 69.0566 22.2314 68.9346 21.1976C68.8476 20.4597 69.177 19.8869 70.2104 18.9797C71.6935 17.6776 73.5179 17.3308 73.5179 18.3514C73.5179 18.6788 73.8236 19.0609 74.1976 19.2011C74.5715 19.3417 75.0733 19.7184 75.3133 20.0384C75.6865 20.5366 75.7886 20.4978 76.0193 19.7712C76.1673 19.304 76.4515 18.9219 76.6508 18.9219C76.85 18.9219 77.0131 18.5494 77.0131 18.0943C77.0131 17.3611 76.8539 17.2927 75.6158 17.4935C74.4053 17.69 74.0418 17.5487 72.8958 16.4356L71.5727 15.1506L72.9374 13.704C73.6877 12.9083 74.2011 12.0943 74.0779 11.8951C73.9548 11.6962 74.1141 11.0127 74.4313 10.3766C74.9972 9.24263 74.7086 8.52302 73.8904 9.02865C73.6682 9.16613 73.0546 9.96263 72.5265 10.7991C71.7758 11.9883 71.3249 12.3199 70.4585 12.3199C69.1777 12.3199 67.3043 10.9968 67.3043 10.092C67.3043 9.08108 68.5607 6.54283 69.1785 6.30554C70.3249 5.86593 74.6069 5.66865 74.8395 6.04535C74.991 6.2904 75.4822 6.27215 76.2185 5.99409C77.1587 5.63914 77.4904 5.67797 78.0795 6.21118C78.5937 6.67642 79.189 6.79603 80.1855 6.63448C81.7152 6.38632 82.3774 6.91448 81.4748 7.66321C81.1568 7.92729 80.8966 8.36535 80.8966 8.63642C80.8966 9.26166 82.1944 9.78593 82.3778 9.23525C82.4531 9.00962 82.6853 8.82477 82.8935 8.82477C83.102 8.82477 83.1412 9.04341 82.9809 9.3102C82.7925 9.62399 82.928 9.60186 83.3642 9.24807C83.735 8.94671 83.9533 8.47758 83.8488 8.20496C83.7444 7.93273 83.8675 7.62283 84.1222 7.51681C84.3832 7.40807 84.2038 7.20729 83.7121 7.05817C83.2313 6.91215 82.8383 6.48185 82.8383 6.10244C82.8383 5.27642 83.9696 4.75215 84.5343 5.31681C84.7548 5.53739 85.2376 5.71797 85.6069 5.71797C85.9758 5.71797 86.5447 5.98477 86.871 6.31098C87.3521 6.79215 88.0546 6.85467 90.5882 6.64341C92.3063 6.50011 93.7121 6.23914 93.7121 6.06283C93.7121 5.8869 94.1758 5.49972 94.7428 5.20263L95.7735 4.66283L94.0632 4.06982C89.9106 2.62981 84.5183 2.12768 71.7704 1.99409C64.9354 1.92224 57.8577 1.79447 56.0422 1.70981C54.2267 1.62554 52.2787 1.62865 51.7137 1.71719ZM12.1164 2.70826C12.2973 3.20108 12.8356 3.64069 13.3509 3.71681C14.3265 3.86088 15.2329 4.79253 15.2531 5.67215C15.2601 5.96729 15.6527 6.83564 16.1261 7.60147C16.8364 8.7502 17.1366 10.937 16.6538 11.4446C16.6037 11.497 15.8779 11.2054 15.0406 10.7956L13.5179 10.0516L13.1902 11.0042C12.643 12.5941 13.0744 13.1234 14.4841 12.591C15.4589 12.2232 15.7525 12.2395 16.022 12.6756C16.2053 12.9723 16.9067 13.2756 17.5804 13.349C18.2997 13.4279 18.7098 13.3285 18.5738 13.1083C18.4465 12.902 18.6985 11.996 19.1338 11.0947C20.0403 9.21855 20.1206 8.39836 19.4624 7.74011C19.1032 7.38088 19.2492 7.01506 20.1109 6.11564C21.1591 5.02166 21.1859 4.91331 20.5746 4.23758C20.2177 3.84341 19.9257 3.26671 19.9257 2.95642C19.9257 2.13545 16.2034 2.02787 15.0034 2.81389C14.3144 3.26554 13.9043 3.3102 13.3199 2.99758C12.8946 2.77001 12.547 2.41506 12.547 2.20923C12.547 2.00302 12.3781 1.83447 12.1711 1.83447C11.9451 1.83447 11.9234 2.18282 12.1164 2.70826ZM48.457 6.92224C48.3144 7.37079 48.3688 7.90865 48.5774 8.1172C48.8061 8.34593 48.8302 9.05739 48.6379 9.90943C48.1591 12.0329 49.3921 13.0892 50.7572 11.7242C51.201 11.2803 51.2605 10.8853 50.9898 10.1743C50.7906 9.64923 50.7284 8.95603 50.8519 8.63409C50.9762 8.30982 50.8659 8.04807 50.6053 8.04807C50.3459 8.04807 50.2263 7.80729 50.3393 7.51292C50.5711 6.90904 49.9179 6.10632 49.1944 6.10632C48.9311 6.10632 48.5995 6.47331 48.457 6.92224ZM9.8286 7.68263C9.8286 7.90865 10.0034 7.98593 10.2169 7.85389C10.4305 7.72185 10.6053 7.537 10.6053 7.44263C10.6053 7.34826 10.4305 7.27137 10.2169 7.27137C10.0034 7.27137 9.8286 7.45661 9.8286 7.68263ZM70.4111 15.4267C70.4111 15.6403 70.5859 15.8151 70.7995 15.8151C71.0131 15.8151 71.1878 15.6403 71.1878 15.4267C71.1878 15.2131 71.0131 15.0384 70.7995 15.0384C70.5859 15.0384 70.4111 15.2131 70.4111 15.4267ZM11.1878 16.9801C11.3199 17.1937 11.6026 17.3685 11.8162 17.3685C12.0298 17.3685 12.0966 17.1937 11.9645 16.9801C11.8325 16.7665 11.5498 16.5918 11.3362 16.5918C11.1226 16.5918 11.0558 16.7665 11.1878 16.9801ZM80.9024 17.7459C80.6706 18.1789 80.5805 18.5335 80.7024 18.5335C80.8244 18.5335 80.737 18.883 80.5082 19.3102C80.2379 19.8155 79.695 20.0869 78.9548 20.0869C77.6535 20.0869 76.5979 21.398 77.5921 21.7793C77.9024 21.8986 78.4675 22.6461 78.8469 23.4407C79.2267 24.2353 79.7121 24.9257 79.9257 24.9751C80.1393 25.0244 80.8865 24.3995 81.5859 23.5859C82.7191 22.2683 82.8084 21.9995 82.4065 21.1172C82.1583 20.5723 81.6178 20.0741 81.2049 20.01C80.4752 19.8958 80.4768 19.869 81.2581 19.0353C82.1339 18.1009 82.2655 17.5401 81.6927 17.1863C81.49 17.0609 81.1343 17.3129 80.9024 17.7459ZM87.97 23.6543C87.6146 24.0096 87.655 24.276 88.1467 24.8193C89.0244 25.7894 89.2333 25.7079 89.3277 24.358C89.4131 23.1351 88.8046 22.8197 87.97 23.6543ZM14.4888 25.3296C14.4888 25.65 14.6865 25.9122 14.9276 25.9122C15.217 25.9122 15.3004 26.4974 15.1731 27.6279C15.0259 28.9358 15.1001 29.2974 15.4865 29.149C15.7653 29.0422 15.9012 28.7153 15.789 28.4228C15.6768 28.1304 15.7168 27.6776 15.8783 27.417C16.0395 27.156 16.1859 26.4485 16.2037 25.845C16.2302 24.9556 16.0702 24.7471 15.3626 24.7471C14.8449 24.7471 14.4888 24.9844 14.4888 25.3296ZM69.4772 25.589C68.7032 26.6943 68.6908 27.3184 69.4376 27.605C70.1432 27.8756 71.6449 26.3619 71.4865 25.5393C71.3051 24.5976 70.1517 24.6259 69.4772 25.589ZM81.1556 25.3945C80.7983 25.7514 80.8282 27.4655 81.1913 27.4655C81.6644 27.4655 82.4985 25.9168 82.2461 25.5079C81.9778 25.0737 81.5234 25.0263 81.1556 25.3945ZM17.2072 25.9351C17.2072 26.1611 17.382 26.2384 17.5956 26.1063C17.8092 25.9743 17.9839 25.7894 17.9839 25.6951C17.9839 25.6007 17.8092 25.5238 17.5956 25.5238C17.382 25.5238 17.2072 25.709 17.2072 25.9351ZM84.0791 27.1995C82.7809 27.683 82.1552 28.1028 82.3871 28.3347C82.6193 28.5669 83.1226 28.4621 83.7486 28.052C84.3179 27.6791 85.0679 27.5044 85.5051 27.6434C85.9249 27.7766 86.3898 27.6885 86.5389 27.4477C87.09 26.556 86.0814 26.4543 84.0791 27.1995ZM87.1102 26.8193C87.1102 27.596 85.5871 30.184 85.13 30.184C84.9378 30.184 84.7801 30.5459 84.7801 30.9887C84.7801 31.8947 83.0154 35.1805 82.1463 35.8927C81.8275 36.1545 81.0892 36.2613 80.4647 36.1366C78.6236 35.7681 76.9568 37.2908 76.0776 40.1448C75.8888 40.7576 76.1343 41.323 76.9995 42.2702C77.6477 42.9801 78.1781 43.9389 78.1781 44.4011C78.1781 44.8628 78.4391 45.7413 78.7583 46.3533C79.1133 47.0341 79.3393 47.2155 79.3409 46.8205C79.342 46.4656 79.824 45.7665 80.4111 45.2671C81.064 44.7122 81.4348 44.0496 81.3653 43.5634C81.2888 43.0279 81.7327 42.3852 82.7245 41.5957C84.5991 40.1032 85.5568 39.7289 85.5568 40.4873C85.5568 40.8011 85.7315 41.0578 85.9451 41.0578C86.5793 41.0578 86.3863 39.4345 85.6915 38.9265C85.3385 38.6683 85.1743 38.2558 85.3261 38.01C85.6954 37.4123 87.8869 37.4329 87.8869 38.0341C87.8869 38.3588 88.0601 38.3289 88.4438 37.937C89.4484 36.911 89.2923 36.3207 87.8869 35.8314C87.0682 35.5463 86.4811 35.0628 86.4104 34.6155C86.3463 34.2073 86.0962 33.4764 85.8554 32.9918C85.5385 32.3541 85.5346 31.9925 85.8414 31.6857C86.3622 31.165 87.1102 31.5712 87.1102 32.3751C87.1102 32.7009 87.3288 32.8896 87.5956 32.7949C87.8628 32.7001 88.0426 32.2659 87.9952 31.8298C87.9482 31.3937 88.1665 30.8236 88.4807 30.563C88.8803 30.2314 89.0519 30.2197 89.0519 30.525C89.0519 31.1591 90.0407 31.0582 90.6158 30.3657C91.4088 29.41 90.3723 26.6888 89.2158 26.6888C88.7335 26.6888 88.0624 26.5828 87.7246 26.4531C87.3273 26.3005 87.1102 26.4298 87.1102 26.8193ZM7.94394 30.5289C7.52802 30.7925 7.51326 31.0395 7.87365 31.7129C8.23908 32.3956 8.43947 32.4729 8.88491 32.1032C10.1269 31.0722 9.2919 29.6749 7.94394 30.5289ZM16.7098 34.3063C16.4317 34.584 17.5397 36.3976 17.987 36.3976C18.5401 36.3976 18.7804 35.1421 18.3315 34.6007C17.8663 34.0403 17.1125 33.9032 16.7098 34.3063ZM94.7059 35.9366C94.558 36.4038 94.2861 36.7859 94.102 36.7859C93.3743 36.7859 92.4985 38.0935 92.697 38.8838C93.0197 40.1692 92.4073 40.7941 91.0236 40.591C90.0007 40.4407 89.568 40.6531 88.3591 41.8993C87.5653 42.7176 86.5665 43.3902 86.1393 43.3933C85.3844 43.3995 83.8391 44.1467 84.5564 44.1588C84.7541 44.1619 84.5226 44.5828 84.0422 45.0943C83.3646 45.8155 83.2558 46.1856 83.5576 46.7448C83.7715 47.1413 84.0578 47.8139 84.1933 48.2395C84.4329 48.9918 84.4593 48.9883 85.1113 48.1238C85.8822 47.1021 87.0014 47.2982 87.4589 48.5347C87.7133 49.2221 87.8042 49.2403 88.3346 48.7098C88.897 48.1475 89.7882 47.9048 90.9273 48.0034C91.3032 48.036 91.37 48.3922 91.1739 49.3102C90.8644 50.7576 90.3063 51.5762 89.6799 51.5025C88.2376 51.3324 87.9929 52.3114 89.0084 54.1894C89.3793 54.8753 89.3871 55.217 89.0422 55.6325C88.0997 56.7681 88.9211 56.9421 90.3754 55.9149C91.4383 55.1642 91.9416 54.9914 92.0597 55.3366C92.4042 56.3444 93.4178 56.9801 94.6799 56.9801C95.8069 56.9801 96.0143 56.8259 96.2345 55.8244C96.3739 55.1891 96.3603 54.4621 96.2038 54.2089C96.0473 53.9557 95.9533 49.8869 95.9952 45.1673C96.0562 38.3024 95.9618 36.436 95.5234 35.8364C94.9879 35.1044 94.9696 35.1067 94.7059 35.9366ZM72.1925 37.6842C71.7886 37.9793 71.6243 38.3234 71.8271 38.4485C72.3393 38.7654 73.2566 38.1374 73.0752 37.5941C72.9688 37.2745 72.7179 37.3001 72.1925 37.6842ZM63.5719 46.9281C63.7195 47.4372 64.0496 48.6838 64.3051 49.6986C64.8418 51.8302 65.1956 52.0217 65.5572 50.3766C65.7296 49.5922 65.5805 48.7401 65.1024 47.7762C64.264 46.085 63.1475 45.4663 63.5719 46.9281ZM75.3603 47.4426C75.6298 48.8527 74.3451 51.9623 72.9346 53.3141C71.8232 54.3786 71.7059 54.7013 71.8038 56.4209C71.9451 58.8997 71.9234 58.8388 72.384 58.0481C72.6018 57.6741 73.1661 57.3685 73.6379 57.3685C74.1102 57.3685 74.7145 57.019 74.9812 56.5918C75.248 56.1646 75.6585 55.8151 75.8935 55.8151C76.2989 55.8151 76.2733 56.0516 75.6115 58.4364C75.4185 59.1316 75.5277 59.3102 76.1436 59.3102C76.9494 59.3102 77.6636 58.6438 78.3649 57.2376C78.591 56.784 79.2096 56.1937 79.7393 55.9254C80.6869 55.4461 80.688 55.438 79.8286 55.4325C79.1156 55.4279 78.9548 55.2096 78.9548 54.2481C78.9548 52.499 77.923 51.1549 76.5801 51.1549C75.0943 51.1549 75.1669 50.7331 76.9253 49.1444L78.391 47.8205L77.1036 47.1576C75.3948 46.278 75.1455 46.3188 75.3603 47.4426ZM33.742 48.4395C30.6119 48.8287 29.3203 49.6349 28.629 51.631C27.9362 53.6329 28.29 54.65 29.6799 54.65C30.2954 54.65 30.7995 54.8388 30.7995 55.0691C30.7995 55.3238 30.3801 55.3976 29.7315 55.2566C28.8391 55.0628 28.4853 55.2492 27.5789 56.391C26.3921 57.8861 25.3836 58.111 24.3777 57.1048C23.577 56.304 23.8065 53.784 24.7781 52.7106C25.2907 52.144 25.335 51.8287 24.9917 51.1871C24.4651 50.2038 23.4224 50.1184 23.4173 51.0578C23.415 51.4318 22.8869 52.6555 22.2434 53.7778C21.3669 55.3063 20.5533 56.1118 19.0014 56.9875C16.9948 58.1199 16.9327 58.2058 17.0181 59.7242C17.081 60.8392 16.8406 61.6838 16.1859 62.6485C15.0717 64.2904 15.0119 65.1355 16.01 65.1355C16.4193 65.1355 16.8127 65.3106 16.8837 65.5246C16.9684 65.7782 17.4554 65.7867 18.283 65.5494C19.1917 65.2889 19.4771 65.3075 19.2869 65.6147C19.1039 65.911 19.2523 65.9405 19.7649 65.7102C20.1738 65.5265 21.2729 65.4127 22.2072 65.457C23.142 65.5017 24.1311 65.3518 24.4057 65.1238C24.761 64.8291 24.982 64.8341 25.1723 65.1421C25.3552 65.438 25.6822 65.3549 26.2088 64.8784C26.8453 64.3021 26.9335 63.8877 26.7206 62.4687C26.5358 61.2357 26.6088 60.6628 26.9812 60.4267C27.9125 59.8364 28.8577 60.0473 28.8577 60.8454C28.8577 62.3432 29.6484 63.4718 30.5738 63.2947C31.1917 63.1766 31.6348 63.4193 32.1016 64.132C32.4632 64.6838 33.1047 65.1355 33.5269 65.1355C33.949 65.1355 34.2946 65.3304 34.2946 65.5693C34.2946 65.8116 34.6372 65.9133 35.0709 65.7999C35.4977 65.6881 35.9342 65.7378 36.041 65.9102C36.2302 66.2159 39.4333 66.0761 40.4224 65.7192C40.6954 65.6201 41.8387 65.779 42.9626 66.0718C44.8702 66.5685 46.4263 66.5809 53.4306 66.1549C54.6643 66.0795 55.7669 66.1692 55.8807 66.3537C55.9948 66.5378 56.963 66.6889 58.0325 66.6889C59.1016 66.6889 60.3401 66.8834 60.784 67.1207C61.3696 67.4341 61.9758 67.4372 62.9913 67.132C64.2822 66.7436 76.7253 66.158 80.3141 66.3164C82.024 66.3922 82.2306 66.3902 89.9533 66.2228C96.0574 66.0904 96.0717 66.0827 96.0364 62.9234C95.9824 58.0842 96.0939 58.5063 94.9467 58.7887C94.3746 58.9296 93.5568 59.2659 93.1296 59.5366C91.8849 60.3246 89.2115 60.3518 88.3645 59.5852C87.3626 58.6784 85.7005 58.7184 85.4554 59.6555C85.3498 60.059 85.4045 60.6174 85.577 60.8962C85.8659 61.3638 85.575 61.9075 83.911 64.0108C83.6399 64.3537 83.0131 64.7626 82.5183 64.9195C81.803 65.1467 81.5758 65.0403 81.4084 64.4003C81.2158 63.6636 79.3614 62.417 78.4581 62.417C78.2473 62.417 78.1824 62.9238 78.311 63.5669C78.6224 65.1238 77.9478 65.4197 76.8321 64.2155C76.3273 63.671 75.5063 63.1421 75.0073 63.0407C73.3179 62.6974 71.3793 62.4683 71.8675 62.6698C72.5878 62.9669 72.4574 63.499 71.544 63.9879C70.916 64.3238 70.5902 64.2939 70.0877 63.8535C69.6609 63.4795 69.1758 63.3937 68.6636 63.6011C68.2364 63.7743 68.1055 63.9281 68.3723 63.9432C68.6395 63.958 68.8577 64.158 68.8577 64.3871C68.8577 65.3875 67.5719 64.419 67.1094 63.0702C66.6803 61.8186 66.6861 61.5553 67.1471 61.3782C67.4473 61.2632 67.9548 61.2694 68.2752 61.3926C68.5956 61.5153 68.8577 61.4465 68.8577 61.2399C68.8577 61.0329 68.3335 60.8636 67.6927 60.8636C66.916 60.8636 66.5276 60.6694 66.5276 60.2811C66.5276 59.9607 66.3529 59.6986 66.1393 59.6986C65.9257 59.6986 65.7509 59.9797 65.7509 60.323C65.7509 60.8096 65.5148 60.8896 64.683 60.6842C63.0542 60.2819 62.8954 59.9425 62.8655 56.8077C62.8325 53.2858 62.3886 52.7017 59.4399 52.3017C58.295 52.1463 56.0154 51.3902 54.3742 50.6221C51.4208 49.2392 51.3436 49.2259 46.7871 49.316C43.3975 49.3832 42.0177 49.2698 41.5544 48.8865C40.7467 48.2174 37.1742 48.0131 33.742 48.4395ZM91.7832 48.9219C91.8034 49.6776 93.1851 51.1549 93.8713 51.1549C94.7137 51.1549 94.6314 50.7619 93.5242 49.5044C92.5284 48.3727 91.7618 48.1164 91.7832 48.9219ZM79.9257 51.5432C79.7937 51.7568 79.9583 51.9316 80.2911 51.9316C80.624 51.9316 80.8966 51.7568 80.8966 51.5432C80.8966 51.3296 80.7323 51.1549 80.5312 51.1549C80.33 51.1549 80.0578 51.3296 79.9257 51.5432ZM65.9129 55.1867C66.2333 58.17 66.7269 59.1129 67.0939 57.4423C67.3902 56.0939 67.1106 54.8621 66.2395 53.6792C65.7203 52.9743 65.6904 53.1133 65.9129 55.1867ZM83.5249 55.8151C83.2581 56.2423 82.7323 56.5918 82.3564 56.5918C81.9809 56.5918 81.6748 56.723 81.6764 56.883C81.6791 57.1673 83.5075 58.1452 84.036 58.1452C84.5638 58.1452 85.5428 56.2306 85.3168 55.6411C84.9948 54.8023 84.1036 54.8885 83.5249 55.8151ZM37.3043 56.8139C36.7168 57.1327 36.2364 57.5809 36.2364 57.8104C36.2364 58.4267 38.1805 59.8628 39.3222 60.0904C40.0127 60.2279 40.436 60.6644 40.716 61.5277C41.2274 63.1063 41.5335 63.4011 42.1494 62.9094C42.4216 62.6924 43.1684 62.4221 43.8092 62.3091C44.45 62.196 46.4469 61.5716 48.2469 60.9219C51.7327 59.6632 53.9474 57.977 53.3579 57.031C53.0791 56.584 52.7253 56.5953 51.1362 57.1028C50.0966 57.4345 48.5471 57.7988 47.6927 57.9118C46.8383 58.0248 45.6329 58.236 45.0135 58.3817C44.2208 58.5681 43.9684 58.516 44.1599 58.2058C44.3358 57.9215 44.2158 57.8489 43.8212 58.0003C43.45 58.1425 42.8115 57.8357 42.1944 57.219C41.0205 56.045 39.0263 55.8795 37.3043 56.8139ZM4.20103 57.8539C3.90549 58.5692 2.44996 58.8116 2.44996 58.1452C2.44996 57.9316 2.14433 57.7568 1.77034 57.7572C1.24064 57.7572 1.06588 58.1425 0.978111 59.5017C0.867043 61.2263 1.28879 62.4764 2.33462 63.5223C2.79365 63.9813 3.142 63.8943 4.69811 62.9324C6.86316 61.5937 7.12957 60.7592 5.8352 59.3689C5.30821 58.8026 4.78821 58.0772 4.67947 57.7568C4.5152 57.2714 4.4352 57.2877 4.20103 57.8539ZM21.6379 58.6795C21.309 59.537 21.7467 59.9747 22.3401 59.3813C22.6904 59.031 22.6915 58.8139 22.3463 58.4687C22.0006 58.123 21.8321 58.1731 21.6379 58.6795ZM24.7575 60.2329C24.6224 60.7708 24.0915 61.4865 23.5781 61.8228C22.4659 62.5518 22.3467 63.5821 23.3746 63.5821C24.2593 63.5821 26.2418 61.0986 26.069 60.2069C25.8663 59.163 25.0216 59.1797 24.7575 60.2329ZM72.7412 59.9471C72.7412 60.2496 73.9859 61.2225 74.3948 61.2395C74.5572 61.2465 74.4713 60.9025 74.2045 60.4753C73.7529 59.7526 72.7412 59.3871 72.7412 59.9471ZM73.5179 64.1646C73.5179 64.8205 73.6958 65.1409 74.0034 65.0384C74.2706 64.9494 74.4888 64.556 74.4888 64.1646C74.4888 63.7731 74.2706 63.3797 74.0034 63.2908C73.6958 63.1883 73.5179 63.5087 73.5179 64.1646Z" fill="#D8D8FD"/>
</svg>
